<svg xmlns="http://www.w3.org/2000/svg" viewBox="0 0 838.43 833.25"><g id="Capa_2" data-name="Capa 2"><g id="Capa_1-2" data-name="Capa 1" style="fill: #C12F2E;"><path d="M647,715.15c16.64,11.55,18.8,23.13,13.61,36.51-9.49,24.46-43.55,31.42-63.93,13.32-22.35-19.84-26.24-62.12-7.87-85.52,30.53-38.9,23.63-96.31-16.71-125-15.37-10.93-33.11-19.54-51-25.83-65-22.93-131.23-19.89-197.57-5.79C318.18,524,312.72,525,307.27,526c37.28-29.1,79.54-42.87,126.37-48.24-6-26.38-8.55-50.76,8.17-74.54,12.36,36.05,24.1,45.47,47.55,40.06,18.46-4.26,31.85-22.86,28.27-41.87-1.51-8-5.19-18.35-11.3-22.15-8.86-5.51-20.81-6-31.08-8.6,15.73-27,50-27.16,66.59,1.78,12.15,21.15,11.08,43-2.2,63.17-14.33,21.82-35.28,30.19-61,25.34-9.46-1.78-18.69-4.76-29.05-7.45,9.69,28.59,27.27,40.48,59.44,38.1,57.23-4.24,100.36-31.19,127.51-82.64,22.58-42.79,16.39-88.34,14.91-134.74l-32.71,11.91c17.58-30.75,35.74-62.58,54-94.35,1.83-3.19,4.38-5.95,6.36-9.06,24.92-39.27,64.16-60.34,103.35-81.49,6.65-3.59,13.28-7.22,19.92-10.83a42.55,42.55,0,0,0-19.82-2.81c-73.43,6.43-145.72,18.25-215,44.81-50,19.16-97,43.38-137.45,79-67,59-110.08,134.12-144.24,215.17q-6.42,15.25-12.93,30.47l-6.31-2,20.53-96c-35-4.92-47-14.2-51.57-39.15-4.71-25.72,11.47-58.61,34.7-70.52,17.61-9,32-3.62,33.58,12.69C280,259.73,262.77,275.69,262,300.9c-.65,21.08,10.54,30,30.51,23.24,32.26-11,49.34-35.79,57.87-67.26,7.72-28.49,3.68-57-5.59-84-19.87-57.84-2.73-105.4,36.66-148C389,16.75,396.29,8.47,403.71.27,299.41,39.79,243.76,121.63,210.43,221.35c-33.62,100.57-23.07,198.84,28.29,297-48-15.75-84.91-35.62-109.35-73.48-27.87-43.17-25-75.55,8.36-111.72,7.06-7.66,19.21-18.51,7.79-27.83-5.9-4.81-23.28-2-31.1,3.58-9.8,7-18.86,19.4-21.48,31-4.12,18.17-6.15,38.31-2.72,56.41,8.36,44.09,35.11,77.18,72.52,101,33.95,21.58,68.94,41.53,105,63.09,26.75-20.47,102-26.56,133.85-5.14,12.78,8.59,22.92,23.8,29.5,38.18,6.89,15-2.58,32.22-16.62,38.86-15.6,7.37-27.71.72-37.72-10.77-7.28-8.35-12.69-18.37-20.18-26.5-18-19.54-40.39-22.77-57.74-10.18,15,8.08,33.38,13.48,45.3,25.35a388.31,388.31,0,0,1,53.78,67.26c17,27,37.3,41.56,65.47,39,30.53-2.72,55.25-22.94,63.41-51.75,4.44-15.67,2.7-30.27-11.43-39.69-13.35-8.91-25.69-4.85-37,8.79-1-8.32-1.11-16.24,2.65-21.19,11-14.49,26.43-17.16,43.27-11.27s27.61,25.39,26.43,46.69c-3.14,56.69-67.42,96.49-119.54,74-5.59-2.41-11.27-4.62-21.18-8.66,37.28,70.33,88.07,62.14,141.84,34.65,18.16,32,31.7,42.83,57.72,44.65,24.24,1.7,45.58-5.59,59.9-26.24,11.76-17,10.22-36,.42-52.71-5.05-8.62-16.2-19.06-24.5-19-9.71.1-21.42,9-28.45,17.28-10.83,12.78-5.06,24.54,11.55,28C645.65,743.71,647.85,732.31,647,715.15ZM0,416.23l420,417,41.06-37L435,776.72,419.2,787.16c-6.1-5.65-12-10.89-17.67-16.4Q240.27,613.67,79,456.55c-15-14.63-31.17-28.08-36-50.29-1.31-6-7.05-11-11.84-18Zm687.27-148c-8.59,19.63-4.74,35.2,12,50.27C725,341.55,748.59,367,773,391.46c7.64,7.67,15,15.65,26.24,27.47-6.61,4.11-12.12,6.32-16,10.16q-60.18,59-119.89,118.56c-28.73,28.63-28.61,28.75-25.68,72.15L838.43,417.69ZM89.43,422.75c-2.45-8-5.06-15.89-7.33-23.91-9.47-33.48-18.38-67.63-10.68-102.19,4-17.75,14-34.88,24.37-50.22,7-10.41,21.49-13.21,30.47-2.34,4,4.91,0,16.49-.49,28.44,9.75,6.6,22.11,2,25.66-15.12,3.51-17-3.42-29.58-16.57-40.36-14.23-11.67-28.15-5.6-39.19,2.12-28.53,19.93-44.23,47.6-46.19,83.55C47,348.15,63.22,386.8,89.43,422.75ZM420.2,0,393.74,59.74c6.29-.52,9.51-2.49,11.76-5.25,10.31-12.57,18.58-13.65,30.38.12,16.76,19.56,36.24,36.77,54.5,55,15.3,15.31,24.86,16.18,43.24,4.32ZM354.58,564.78l-1.79,4.82c9.39,12,17.74,25,28.6,35.5,5.74,5.52,15.69,7.6,24.09,8.83,2.59.38,9.71-8.07,8.94-10.88-2.25-8.16-5.57-19.31-11.87-22.43C387.61,573.24,370.7,569.81,354.58,564.78Z"/><path d="M647,715.15c.82,17.16-1.38,28.56-18.58,25-16.61-3.45-22.38-15.21-11.55-28,7-8.3,18.74-17.18,28.45-17.28,8.3-.09,19.45,10.35,24.5,19,9.8,16.69,11.34,35.75-.42,52.71-14.32,20.65-35.66,27.94-59.9,26.24-26-1.82-39.56-12.63-57.72-44.65C498,775.62,447.25,783.81,410,713.48c9.91,4,15.59,6.25,21.18,8.66,52.12,22.44,116.4-17.36,119.54-74,1.18-21.3-9.72-40.85-26.43-46.69S492,598.18,481,612.67c-3.76,5-3.62,12.87-2.65,21.19,11.3-13.64,23.64-17.7,37-8.79,14.13,9.42,15.87,24,11.43,39.69-8.16,28.81-32.88,49-63.41,51.75-28.17,2.51-48.43-12.07-65.47-39A388.31,388.31,0,0,0,344.1,610.2c-11.92-11.87-30.28-17.27-45.3-25.35,17.35-12.59,39.73-9.36,57.74,10.18,7.49,8.13,12.9,18.15,20.18,26.5,10,11.49,22.12,18.14,37.72,10.77,14-6.64,23.51-23.83,16.62-38.86-6.58-14.38-16.72-29.59-29.5-38.18-31.84-21.42-107.1-15.33-133.85,5.14-36-21.56-71-41.51-105-63.09-37.41-23.79-64.16-56.88-72.52-101-3.43-18.1-1.4-38.24,2.72-56.41,2.62-11.6,11.68-24,21.48-31,7.82-5.55,25.2-8.39,31.1-3.58,11.42,9.32-.73,20.17-7.79,27.83-33.35,36.17-36.23,68.55-8.36,111.72,24.44,37.86,61.38,57.73,109.35,73.48-51.36-98.19-61.91-196.46-28.29-297,33.33-99.72,89-181.56,193.28-221.08-7.42,8.2-14.76,16.48-22.27,24.6-39.39,42.6-56.53,90.16-36.66,148,9.27,27,13.31,55.52,5.59,84-8.53,31.47-25.61,56.27-57.87,67.26-20,6.8-31.16-2.16-30.51-23.24.78-25.21,18-41.17,41.89-38.79-1.62-16.31-16-21.73-33.58-12.69-23.23,11.91-39.41,44.8-34.7,70.52,4.57,24.95,16.61,34.23,51.57,39.15l-20.53,96,6.31,2q6.48-15.22,12.93-30.47C320,345.57,363.16,270.48,430.12,211.45c40.42-35.63,87.47-59.85,137.45-79,69.27-26.56,141.56-38.38,215-44.81a42.55,42.55,0,0,1,19.82,2.81c-6.64,3.61-13.27,7.24-19.92,10.83-39.19,21.15-78.43,42.22-103.35,81.49-2,3.11-4.53,5.87-6.36,9.06-18.25,31.77-36.41,63.6-54,94.35l32.71-11.91c1.48,46.4,7.67,91.95-14.91,134.74-27.15,51.45-70.28,78.4-127.51,82.64-32.17,2.38-49.75-9.51-59.44-38.1,10.36,2.69,19.59,5.67,29.05,7.45,25.7,4.85,46.65-3.52,61-25.34,13.28-20.21,14.35-42,2.2-63.17-16.64-28.94-50.86-28.81-66.59-1.78,10.27,2.56,22.22,3.09,31.08,8.6,6.11,3.8,9.79,14.13,11.3,22.15,3.58,19-9.81,37.61-28.27,41.87-23.45,5.41-35.19-4-47.55-40.06-16.72,23.78-14.21,48.16-8.17,74.54-46.83,5.37-89.09,19.14-126.37,48.24,5.45-1.06,10.91-2,16.34-3.19,66.34-14.1,132.54-17.14,197.57,5.79,17.84,6.29,35.58,14.9,51,25.83,40.34,28.68,47.24,86.09,16.71,125-18.37,23.4-14.48,65.68,7.87,85.52,20.38,18.1,54.44,11.14,63.93-13.32C665.83,738.28,663.67,726.7,647,715.15Z"/><path d="M0,416.23l31.15-28c4.79,7.05,10.53,12.05,11.84,18,4.86,22.21,21,35.66,36,50.29q161.32,157,322.51,314.21c5.66,5.51,11.57,10.75,17.67,16.4L435,776.72l26.11,19.5-41.06,37Z"/><path d="M687.27,268.2,838.43,417.69,637.6,619.8c-2.93-43.4-3.05-43.52,25.68-72.15Q723,488.15,783.17,429.09c3.92-3.84,9.43-6,16-10.16-11.27-11.82-18.6-19.8-26.24-27.47-24.38-24.51-48-49.91-73.66-73C682.53,303.4,678.68,287.83,687.27,268.2Z"/><path d="M89.43,422.75c-26.21-35.95-42.42-74.6-40-120,2-36,17.66-63.62,46.19-83.55,11-7.72,25-13.79,39.19-2.12,13.15,10.78,20.08,23.41,16.57,40.36-3.55,17.16-15.91,21.72-25.66,15.12.51-11.95,4.54-23.53.49-28.44-9-10.87-23.43-8.07-30.47,2.34-10.36,15.34-20.41,32.47-24.37,50.22-7.7,34.56,1.21,68.71,10.68,102.19C84.37,406.86,87,414.78,89.43,422.75Z"/><path d="M420.2,0,533.62,114c-18.38,11.86-27.94,11-43.24-4.32-18.26-18.27-37.74-35.48-54.5-55-11.8-13.77-20.07-12.69-30.38-.12-2.25,2.76-5.47,4.73-11.76,5.25Z"/><path d="M354.58,564.78c16.12,5,33,8.46,48,15.84,6.3,3.12,9.62,14.27,11.87,22.43.77,2.81-6.35,11.26-8.94,10.88-8.4-1.23-18.35-3.31-24.09-8.83-10.86-10.45-19.21-23.52-28.6-35.5Z"/></g></g></svg>